<?xml version="1.0" encoding="utf-8"?>
<!-- Generator: Adobe Illustrator 26.0.3, SVG Export Plug-In . SVG Version: 6.00 Build 0)  -->
<svg version="1.1" id="Layer_1" xmlns="http://www.w3.org/2000/svg" xmlns:xlink="http://www.w3.org/1999/xlink" x="0px" y="0px"
	 viewBox="0 0 512 512" style="enable-background:new 0 0 512 512;" xml:space="preserve">
<g>
	<path d="M352.3,208c24.2,0,46.8-10.8,62.1-29.7c7.4-9.1,12.6-19.5,15.5-30.9c3-12,3.2-24.4,0.6-36.9c-6.3-30-30.7-54.4-60.7-60.7
		c-5.8-1.2-11.6-1.8-17.3-1.8c-38,0-70.9,26.8-78.4,64h32.7c0.1,0,0.2,0,0.3,0c6.9-19.2,24.9-32,45.3-32c14.1,0,27.5,6.2,36.6,17
		c9.1,10.8,13.1,25,10.7,39c-1.9,11.5-8.2,21.8-17.6,29.2c-8.9,7-20.1,10.8-31.5,10.8H16.3c0,0,0,0,0,0V208c0,0,0,0,0,0H352.3z"/>
	<path d="M400,272H279.2c6.7,9.9,12.1,20.6,16.1,32H400c35.3,0,64,28.7,64,64s-28.7,64-64,64c-11.5,0-22.8-3.1-32.6-9.1
		c-9.2-5.6-17-13.4-22.5-22.8c-0.2-0.1-0.6-0.1-1-0.1h-33.8c0,0-0.1,0-0.1,0c6.6,18.5,18.4,34.3,34.3,45.9
		c16.3,11.8,35.5,18.1,55.6,18.1c6.9,0,14-0.8,21-2.2c35.2-7.4,64.3-35.8,72.4-70.7c3.5-15.2,3.6-30.3,0.2-44.9
		c-3.2-13.6-9.5-26.7-18.3-37.7C456.9,285.3,429.4,272,400,272z"/>
	<path d="M211.6,291.8C196.3,279,176.8,272,156.7,272H16c0,0,0,0,0,0V304c0,0,0,0,0,0h142.2c24.3,0,45.4,17.2,49.2,40
		c2.3,14-1.6,28.3-10.7,39c-9.2,10.8-22.5,17-36.7,17c-20.3,0-38.4-12.8-45.3-32c-0.1,0-0.2,0-0.3,0H81.6c0,0,0,0-0.1,0
		c7.6,37.1,40.4,64,78.4,64c23,0,44.8-9.9,60.1-27.2c15.4-17.5,22.2-40,19.3-63.3C236.8,322.3,227,304.7,211.6,291.8z"/>
</g>
</svg>
